<svg width="194" height="38" viewBox="0 0 194 38" fill="none" xmlns="http://www.w3.org/2000/svg">
<rect width="194" height="38" rx="5" transform="matrix(1 0 0 -1 0 38)" fill="#133C82"/>
<path d="M10.52 26C10.4027 26 10.3067 25.9627 10.232 25.888C10.1573 25.8133 10.12 25.7173 10.12 25.6V15.2C10.12 15.0827 10.1573 14.9867 10.232 14.912C10.3067 14.8373 10.4027 14.8 10.52 14.8H12.216C12.3973 14.8 12.5253 14.8427 12.6 14.928C12.6853 15.0027 12.7387 15.0613 12.76 15.104L16.664 21.264V15.2C16.664 15.0827 16.7013 14.9867 16.776 14.912C16.8507 14.8373 16.9467 14.8 17.064 14.8H18.984C19.1013 14.8 19.1973 14.8373 19.272 14.912C19.3467 14.9867 19.384 15.0827 19.384 15.2V25.6C19.384 25.7067 19.3467 25.8027 19.272 25.888C19.1973 25.9627 19.1013 26 18.984 26H17.272C17.1013 26 16.9733 25.9573 16.888 25.872C16.8133 25.7867 16.7653 25.728 16.744 25.696L12.84 19.776V25.6C12.84 25.7173 12.8027 25.8133 12.728 25.888C12.6533 25.9627 12.5573 26 12.44 26H10.52ZM20.98 26C20.8947 26 20.8147 25.968 20.74 25.904C20.676 25.8293 20.644 25.7493 20.644 25.664C20.644 25.6107 20.6493 25.5627 20.66 25.52L24.42 15.248C24.452 15.1307 24.516 15.0293 24.612 14.944C24.7187 14.848 24.8627 14.8 25.044 14.8H27.412C27.5933 14.8 27.732 14.848 27.828 14.944C27.9347 15.0293 28.004 15.1307 28.036 15.248L31.78 25.52C31.8013 25.5627 31.812 25.6107 31.812 25.664C31.812 25.7493 31.7747 25.8293 31.7 25.904C31.636 25.968 31.556 26 31.46 26H29.492C29.332 26 29.2093 25.9627 29.124 25.888C29.0493 25.8027 29.0013 25.728 28.98 25.664L28.356 24.032H24.084L23.476 25.664C23.4547 25.728 23.4067 25.8027 23.332 25.888C23.2573 25.9627 23.1293 26 22.948 26H20.98ZM24.74 21.728H27.716L26.212 17.504L24.74 21.728ZM33.4731 26C33.3665 26 33.2705 25.9627 33.1851 25.888C33.1105 25.8133 33.0731 25.7173 33.0731 25.6V15.2C33.0731 15.0827 33.1105 14.9867 33.1851 14.912C33.2705 14.8373 33.3665 14.8 33.4731 14.8H35.2011C35.3718 14.8 35.4998 14.848 35.5851 14.944C35.6811 15.0293 35.7398 15.0987 35.7611 15.152L38.5771 20.208L41.3931 15.152C41.4251 15.0987 41.4785 15.0293 41.5531 14.944C41.6385 14.848 41.7718 14.8 41.9531 14.8H43.6651C43.7825 14.8 43.8785 14.8373 43.9531 14.912C44.0385 14.9867 44.0811 15.0827 44.0811 15.2V25.6C44.0811 25.7173 44.0385 25.8133 43.9531 25.888C43.8785 25.9627 43.7825 26 43.6651 26H41.7611C41.6438 26 41.5425 25.9627 41.4571 25.888C41.3825 25.8133 41.3451 25.7173 41.3451 25.6V19.6L39.5371 22.944C39.4945 23.04 39.4305 23.1253 39.3451 23.2C39.2598 23.2747 39.1425 23.312 38.9931 23.312H38.1611C38.0118 23.312 37.8945 23.2747 37.8091 23.2C37.7238 23.1253 37.6545 23.04 37.6011 22.944L35.7931 19.6V25.6C35.7931 25.7173 35.7558 25.8133 35.6811 25.888C35.6065 25.9627 35.5105 26 35.3931 26H33.4731ZM45.6675 26C45.5822 26 45.5022 25.968 45.4275 25.904C45.3635 25.8293 45.3315 25.7493 45.3315 25.664C45.3315 25.6107 45.3368 25.5627 45.3475 25.52L49.1075 15.248C49.1395 15.1307 49.2035 15.0293 49.2995 14.944C49.4062 14.848 49.5502 14.8 49.7315 14.8H52.0995C52.2808 14.8 52.4195 14.848 52.5155 14.944C52.6222 15.0293 52.6915 15.1307 52.7235 15.248L56.4675 25.52C56.4888 25.5627 56.4995 25.6107 56.4995 25.664C56.4995 25.7493 56.4622 25.8293 56.3875 25.904C56.3235 25.968 56.2435 26 56.1475 26H54.1795C54.0195 26 53.8968 25.9627 53.8115 25.888C53.7368 25.8027 53.6888 25.728 53.6675 25.664L53.0435 24.032H48.7715L48.1635 25.664C48.1422 25.728 48.0942 25.8027 48.0195 25.888C47.9448 25.9627 47.8168 26 47.6355 26H45.6675ZM49.4275 21.728H52.4035L50.8995 17.504L49.4275 21.728ZM58.1606 26C58.0433 26 57.9473 25.9627 57.8726 25.888C57.798 25.8133 57.7606 25.7173 57.7606 25.6V15.2C57.7606 15.0827 57.798 14.9867 57.8726 14.912C57.9473 14.8373 58.0433 14.8 58.1606 14.8H59.8566C60.038 14.8 60.166 14.8427 60.2406 14.928C60.326 15.0027 60.3793 15.0613 60.4006 15.104L64.3046 21.264V15.2C64.3046 15.0827 64.342 14.9867 64.4166 14.912C64.4913 14.8373 64.5873 14.8 64.7046 14.8H66.6246C66.742 14.8 66.838 14.8373 66.9126 14.912C66.9873 14.9867 67.0246 15.0827 67.0246 15.2V25.6C67.0246 25.7067 66.9873 25.8027 66.9126 25.888C66.838 25.9627 66.742 26 66.6246 26H64.9126C64.742 26 64.614 25.9573 64.5286 25.872C64.454 25.7867 64.406 25.728 64.3846 25.696L60.4806 19.776V25.6C60.4806 25.7173 60.4433 25.8133 60.3686 25.888C60.294 25.9627 60.198 26 60.0806 26H58.1606ZM73.8846 26.16C72.8713 26.16 71.9966 25.9947 71.2606 25.664C70.5353 25.3227 69.97 24.832 69.5646 24.192C69.17 23.5413 68.9513 22.752 68.9086 21.824C68.898 21.3653 68.8926 20.88 68.8926 20.368C68.8926 19.8453 68.898 19.3493 68.9086 18.88C68.9513 17.9733 69.1753 17.2053 69.5806 16.576C69.986 15.9467 70.5566 15.4667 71.2926 15.136C72.0286 14.8053 72.8926 14.64 73.8846 14.64C74.6846 14.64 75.394 14.7413 76.0126 14.944C76.6313 15.136 77.1486 15.3973 77.5646 15.728C77.9913 16.0587 78.3113 16.4213 78.5246 16.816C78.7486 17.2107 78.866 17.6 78.8766 17.984C78.8873 18.08 78.8553 18.16 78.7806 18.224C78.7166 18.288 78.6366 18.32 78.5406 18.32H76.2046C76.0873 18.32 75.9966 18.304 75.9326 18.272C75.8793 18.2293 75.8313 18.1707 75.7886 18.096C75.714 17.936 75.602 17.7707 75.4526 17.6C75.314 17.4187 75.1166 17.264 74.8606 17.136C74.6153 17.008 74.29 16.944 73.8846 16.944C73.2766 16.944 72.7966 17.104 72.4446 17.424C72.1033 17.744 71.9166 18.256 71.8846 18.96C71.8526 19.8773 71.8526 20.8053 71.8846 21.744C71.9166 22.4907 72.114 23.0293 72.4766 23.36C72.8393 23.6907 73.3193 23.856 73.9166 23.856C74.322 23.856 74.6793 23.7867 74.9886 23.648C75.3086 23.5093 75.5593 23.296 75.7406 23.008C75.922 22.7093 76.0126 22.3307 76.0126 21.872V21.568H74.5086C74.3913 21.568 74.29 21.5307 74.2046 21.456C74.13 21.3707 74.0926 21.2693 74.0926 21.152V19.968C74.0926 19.8507 74.13 19.7547 74.2046 19.68C74.29 19.5947 74.3913 19.552 74.5086 19.552H78.5406C78.658 19.552 78.754 19.5947 78.8286 19.68C78.9033 19.7547 78.9406 19.8507 78.9406 19.968V21.792C78.9406 22.7093 78.7326 23.4933 78.3166 24.144C77.9006 24.7947 77.3086 25.296 76.5406 25.648C75.7833 25.9893 74.898 26.16 73.8846 26.16ZM79.8863 26C79.8009 26 79.7209 25.968 79.6463 25.904C79.5823 25.8293 79.5503 25.7493 79.5503 25.664C79.5503 25.6107 79.5556 25.5627 79.5663 25.52L83.3263 15.248C83.3583 15.1307 83.4223 15.0293 83.5182 14.944C83.6249 14.848 83.7689 14.8 83.9503 14.8H86.3183C86.4996 14.8 86.6383 14.848 86.7343 14.944C86.8409 15.0293 86.9103 15.1307 86.9423 15.248L90.6863 25.52C90.7076 25.5627 90.7183 25.6107 90.7183 25.664C90.7183 25.7493 90.6809 25.8293 90.6063 25.904C90.5423 25.968 90.4623 26 90.3663 26H88.3983C88.2383 26 88.1156 25.9627 88.0303 25.888C87.9556 25.8027 87.9076 25.728 87.8863 25.664L87.2623 24.032H82.9903L82.3823 25.664C82.3609 25.728 82.3129 25.8027 82.2383 25.888C82.1636 25.9627 82.0356 26 81.8543 26H79.8863ZM83.6463 21.728H86.6223L85.1183 17.504L83.6463 21.728ZM92.3794 26C92.262 26 92.166 25.9627 92.0914 25.888C92.0167 25.8133 91.9794 25.7173 91.9794 25.6V15.2C91.9794 15.0827 92.0167 14.9867 92.0914 14.912C92.166 14.8373 92.262 14.8 92.3794 14.8H94.0754C94.2567 14.8 94.3847 14.8427 94.4594 14.928C94.5447 15.0027 94.598 15.0613 94.6194 15.104L98.5234 21.264V15.2C98.5234 15.0827 98.5607 14.9867 98.6354 14.912C98.71 14.8373 98.806 14.8 98.9234 14.8H100.843C100.961 14.8 101.057 14.8373 101.131 14.912C101.206 14.9867 101.243 15.0827 101.243 15.2V25.6C101.243 25.7067 101.206 25.8027 101.131 25.888C101.057 25.9627 100.961 26 100.843 26H99.1314C98.9607 26 98.8327 25.9573 98.7474 25.872C98.6727 25.7867 98.6247 25.728 98.6034 25.696L94.6994 19.776V25.6C94.6994 25.7173 94.662 25.8133 94.5874 25.888C94.5127 25.9627 94.4167 26 94.2994 26H92.3794ZM103.879 26C103.762 26 103.666 25.9627 103.591 25.888C103.517 25.8133 103.479 25.7173 103.479 25.6V15.2C103.479 15.0827 103.517 14.9867 103.591 14.912C103.666 14.8373 103.762 14.8 103.879 14.8H105.991C106.098 14.8 106.189 14.8373 106.263 14.912C106.349 14.9867 106.391 15.0827 106.391 15.2V23.584H111.223C111.341 23.584 111.437 23.6267 111.511 23.712C111.597 23.7867 111.639 23.8827 111.639 24V25.6C111.639 25.7173 111.597 25.8133 111.511 25.888C111.437 25.9627 111.341 26 111.223 26H103.879ZM113.426 26C113.309 26 113.213 25.9627 113.138 25.888C113.064 25.8133 113.026 25.7173 113.026 25.6V15.2C113.026 15.0827 113.064 14.9867 113.138 14.912C113.213 14.8373 113.309 14.8 113.426 14.8H115.57C115.688 14.8 115.784 14.8373 115.858 14.912C115.933 14.9867 115.97 15.0827 115.97 15.2V25.6C115.97 25.7173 115.933 25.8133 115.858 25.888C115.784 25.9627 115.688 26 115.57 26H113.426ZM118.614 26C118.496 26 118.4 25.9627 118.326 25.888C118.251 25.8133 118.214 25.7173 118.214 25.6V15.2C118.214 15.0827 118.251 14.9867 118.326 14.912C118.4 14.8373 118.496 14.8 118.614 14.8H120.63C120.747 14.8 120.843 14.8373 120.918 14.912C120.992 14.9867 121.03 15.0827 121.03 15.2V18.752L123.99 15.104C124.032 15.04 124.102 14.976 124.198 14.912C124.304 14.8373 124.443 14.8 124.614 14.8H126.918C127.014 14.8 127.094 14.8373 127.158 14.912C127.222 14.976 127.254 15.0507 127.254 15.136C127.254 15.2107 127.232 15.2747 127.19 15.328L123.366 20.16L127.494 25.472C127.536 25.5147 127.558 25.5787 127.558 25.664C127.558 25.7493 127.52 25.8293 127.446 25.904C127.382 25.968 127.307 26 127.222 26H124.838C124.646 26 124.496 25.9573 124.39 25.872C124.294 25.7867 124.23 25.7227 124.198 25.68L121.03 21.728V25.6C121.03 25.7173 120.992 25.8133 120.918 25.888C120.843 25.9627 120.747 26 120.63 26H118.614ZM129.208 26C129.09 26 128.994 25.9627 128.92 25.888C128.845 25.8133 128.808 25.7173 128.808 25.6V15.2C128.808 15.0827 128.845 14.9867 128.92 14.912C128.994 14.8373 129.09 14.8 129.208 14.8H131.32C131.426 14.8 131.517 14.8373 131.592 14.912C131.677 14.9867 131.72 15.0827 131.72 15.2V23.584H136.552C136.669 23.584 136.765 23.6267 136.84 23.712C136.925 23.7867 136.968 23.8827 136.968 24V25.6C136.968 25.7173 136.925 25.8133 136.84 25.888C136.765 25.9627 136.669 26 136.552 26H129.208ZM137.714 26C137.629 26 137.549 25.968 137.474 25.904C137.41 25.8293 137.378 25.7493 137.378 25.664C137.378 25.6107 137.384 25.5627 137.394 25.52L141.154 15.248C141.186 15.1307 141.25 15.0293 141.346 14.944C141.453 14.848 141.597 14.8 141.778 14.8H144.146C144.328 14.8 144.466 14.848 144.562 14.944C144.669 15.0293 144.738 15.1307 144.77 15.248L148.514 25.52C148.536 25.5627 148.546 25.6107 148.546 25.664C148.546 25.7493 148.509 25.8293 148.434 25.904C148.37 25.968 148.29 26 148.194 26H146.226C146.066 26 145.944 25.9627 145.858 25.888C145.784 25.8027 145.736 25.728 145.714 25.664L145.09 24.032H140.818L140.21 25.664C140.189 25.728 140.141 25.8027 140.066 25.888C139.992 25.9627 139.864 26 139.682 26H137.714ZM141.474 21.728H144.45L142.946 17.504L141.474 21.728ZM150.208 26C150.09 26 149.994 25.9627 149.92 25.888C149.845 25.8133 149.808 25.7173 149.808 25.6V15.2C149.808 15.0827 149.845 14.9867 149.92 14.912C149.994 14.8373 150.09 14.8 150.208 14.8H154.56C155.936 14.8 157.018 15.12 157.808 15.76C158.608 16.3893 159.008 17.2853 159.008 18.448C159.008 19.2053 158.821 19.8453 158.448 20.368C158.085 20.8907 157.605 21.2853 157.008 21.552L159.216 25.488C159.248 25.552 159.264 25.6107 159.264 25.664C159.264 25.7493 159.226 25.8293 159.152 25.904C159.088 25.968 159.008 26 158.912 26H156.8C156.597 26 156.448 25.952 156.352 25.856C156.256 25.7493 156.186 25.6533 156.144 25.568L154.32 22.048H152.672V25.6C152.672 25.7173 152.634 25.8133 152.56 25.888C152.485 25.9627 152.389 26 152.272 26H150.208ZM152.672 19.792H154.528C155.029 19.792 155.402 19.6693 155.648 19.424C155.904 19.1787 156.032 18.8427 156.032 18.416C156.032 18 155.909 17.664 155.664 17.408C155.429 17.152 155.05 17.024 154.528 17.024H152.672V19.792ZM160.822 26C160.705 26 160.603 25.9627 160.518 25.888C160.443 25.8133 160.406 25.7173 160.406 25.6V24.464C160.406 24.3893 160.427 24.2773 160.47 24.128C160.513 23.968 160.625 23.8187 160.806 23.68L162.47 22.048C163.323 21.3973 164.022 20.848 164.566 20.4C165.121 19.9413 165.531 19.536 165.798 19.184C166.065 18.832 166.198 18.5013 166.198 18.192C166.198 17.8293 166.102 17.5307 165.91 17.296C165.729 17.0507 165.409 16.928 164.95 16.928C164.641 16.928 164.379 16.9973 164.166 17.136C163.963 17.264 163.809 17.4347 163.702 17.648C163.595 17.8613 163.521 18.08 163.478 18.304C163.435 18.4427 163.361 18.5387 163.254 18.592C163.158 18.6453 163.051 18.672 162.934 18.672H160.934C160.838 18.672 160.758 18.64 160.694 18.576C160.63 18.512 160.598 18.432 160.598 18.336C160.609 17.824 160.715 17.344 160.918 16.896C161.131 16.448 161.425 16.0533 161.798 15.712C162.182 15.36 162.635 15.088 163.158 14.896C163.691 14.704 164.289 14.608 164.95 14.608C165.857 14.608 166.625 14.752 167.254 15.04C167.894 15.328 168.379 15.7333 168.71 16.256C169.041 16.768 169.206 17.3707 169.206 18.064C169.206 18.5867 169.089 19.0773 168.854 19.536C168.63 19.984 168.305 20.416 167.878 20.832C167.462 21.2373 166.966 21.6587 166.39 22.096L164.918 23.584H169.03C169.147 23.584 169.243 23.6213 169.318 23.696C169.403 23.7707 169.446 23.8667 169.446 23.984V25.6C169.446 25.7173 169.403 25.8133 169.318 25.888C169.243 25.9627 169.147 26 169.03 26H160.822ZM176.318 26C176.211 26 176.115 25.9627 176.03 25.888C175.955 25.8133 175.918 25.7173 175.918 25.6V23.792H170.942C170.835 23.792 170.739 23.7547 170.654 23.68C170.579 23.6053 170.542 23.5093 170.542 23.392V21.872C170.542 21.776 170.558 21.6907 170.59 21.616C170.632 21.5307 170.675 21.4507 170.718 21.376L175.374 15.072C175.512 14.8907 175.71 14.8 175.966 14.8H178.286C178.403 14.8 178.499 14.8373 178.574 14.912C178.659 14.9867 178.702 15.0827 178.702 15.2V21.408H180.11C180.238 21.408 180.339 21.4507 180.414 21.536C180.488 21.6107 180.526 21.7013 180.526 21.808V23.392C180.526 23.5093 180.483 23.6053 180.398 23.68C180.323 23.7547 180.232 23.792 180.126 23.792H178.702V25.6C178.702 25.7173 178.659 25.8133 178.574 25.888C178.499 25.9627 178.403 26 178.286 26H176.318ZM173.294 21.52H175.982V17.744L173.294 21.52Z" fill="white"/>
</svg>
